<svg xmlns:xlink="http://www.w3.org/1999/xlink" xmlns="http://www.w3.org/2000/svg" width="245.669" height="340.157" viewBox="0 0 65 90" fill="#b7d513"><rect width="65" height="90" rx="5" fill="#ecece7"/><g transform="matrix(.62069 0 0 .62069 12.017241 19.551724)"><path d="M44.565 12.37a15.127 15.127 0 0 0-11.48 5.301 16.828 16.828 0 0 1 3.565 8.406 22.784 22.784 0 0 1 5.81-3.127 26.346 26.346 0 0 1 9.075-8.889 15.127 15.127 0 0 0-6.97-1.691zM31.956 29.59a22.784 22.784 0 0 1 .469.568 22.784 22.784 0 0 1 .024-.029 25.346 25.346 0 0 0-.492-.539z" fill="#3978a8"/><path d="M50.185 22.327a20.9 20.9 0 0 0-17 8.84c1.644 2.314 2.842 4.915 3.531 7.669v19.494l10.12.016V43.656c.006-5.445 8.726-13.65 20.882-11.906a20.9 20.9 0 0 0-17.533-9.423z" fill="#79427b"/><circle cx="51.168" cy="14" r="2"/><circle cx="67.135" cy="30.769" r="3"/><path d="M20.435 12.37a15.127 15.127 0 0 0-6.97 1.691 26.346 26.346 0 0 1 9.119 8.962 22.784 22.784 0 0 1 9.84 7.136 22.784 22.784 0 0 1 3.108-3.197A15.127 15.127 0 0 0 20.435 12.37z" fill="#309c63"/><path d="M14.679 22.327h-.062A20.9 20.9 0 0 0-2.718 31.75c14.708-1.555 20.882 9.765 20.882 16.631v9.951l17.014.016v-19.51a20.9 20.9 0 0 0-20.5-16.51z" fill="#c93038"/><g transform="scale(-1 1)"><circle r="2" cy="14" cx="-13.832"/><circle r="3" cy="30.769" cx="2.135"/></g><rect width="35" height="10" x="15" y="60" rx="2"/><circle r="4" cy="30.769" cx="67.135"/></g><path d="M15.562 3.056c-1.722 0-3.075.494-4.059 1.482s-1.468 2.353-1.468 4.094.489 3.099 1.468 4.088 2.336 1.482 4.059 1.482 3.08-.494 4.058-1.482 1.468-2.351 1.468-4.088-.489-3.106-1.468-4.094-2.331-1.482-4.058-1.482zM6.18 3.25v9.7c0 .624-.149 1.097-.446 1.418s-.727.482-1.302.482H4v2.094h.562c1.473 0 2.571-.331 3.295-.993s1.094-1.662 1.094-3.001v-9.7h-2.77zm15.972 0v10.743h2.77v-4.23l4.274 4.231H40.19V11.9h-4.864V9.439h4.426V7.345h-4.426v-2h4.706V3.25h-7.477v10.634l-5.597-5.547 5.174-5.088h-3.216l-3.994 3.922V3.25h-2.77zm19.454 0v10.743h2.77V9.928h.784c.451 0 .811.098 1.08.295s.542.563.806 1.101l1.31 2.67h2.95l-1.504-3.051c-.307-.619-.611-1.079-.914-1.381s-.635-.504-1.014-.59c.691-.216 1.206-.552 1.547-1.008s.518-1.038.518-1.748c0-1.027-.331-1.778-.993-2.253s-1.693-.712-3.108-.712h-4.231zM15.562 5.064c.849 0 1.506.312 1.971.935s.698 1.501.698 2.633-.233 2.003-.698 2.627-1.122.935-1.971.935-1.499-.312-1.965-.935-.698-1.499-.698-2.627.233-2.01.698-2.633 1.12-.935 1.965-.935zm28.814.194h1.166c.58 0 .995.105 1.245.316s.381.561.381 1.051-.127.849-.381 1.065-.664.324-1.245.324h-1.166V5.258zm17.063 67.798c-1.473 0-2.572.331-3.296.993s-1.093 1.662-1.093 3v9.7h2.77v-9.7c0-.624.149-1.096.446-1.417s.727-.482 1.302-.482H62v-2.094h-.561zm-11.001 2.741c-1.727 0-3.08.494-4.059 1.483s-1.468 2.35-1.468 4.087.489 3.106 1.468 4.094 2.332 1.483 4.059 1.483 3.075-.494 4.058-1.483 1.468-2.353 1.468-4.094-.489-3.099-1.468-4.087-2.336-1.483-4.058-1.483zm-35.744.209l1.504 3.051c.307.619.611 1.08.914 1.382s.636.504 1.015.59c-.691.216-1.207.551-1.547 1.007s-.518 1.039-.518 1.749c0 1.027.331 1.777.993 2.252s1.693.713 3.108.713h4.231V76.006h-2.77v4.066h-.784c-.451 0-.81-.098-1.079-.295s-.542-.564-.806-1.101l-1.309-2.67h-2.95zm11.116 0V78.1h4.865v2.461h-4.426v2.094h4.426v2h-4.706v2.094h7.477V76.115l5.597 5.547-5.174 5.088h3.216l3.994-3.922v3.922h2.77V76.006h-2.77v4.231l-4.275-4.231H25.81zm24.628 1.799c.844 0 1.499.312 1.964.936s.698 1.499.698 2.626-.233 2.01-.698 2.634-1.12.935-1.964.935-1.507-.312-1.972-.935-.698-1.502-.698-2.634.232-2.003.698-2.626 1.123-.936 1.972-.936zm-29.981 4.181h1.166v2.756h-1.166c-.58 0-.995-.106-1.245-.317s-.381-.561-.381-1.051.127-.849.381-1.065.664-.323 1.245-.323z"/></svg>